<svg width="21" height="21" viewBox="0 0 21 21" fill="none" xmlns="http://www.w3.org/2000/svg">
<g clip-path="url(#clip0)">
<path d="M10.0226 2.18592C12.695 2.18592 13.0115 2.19764 14.0625 2.24453C15.0393 2.28751 15.5667 2.4516 15.9184 2.58835C16.3833 2.76808 16.7193 2.98687 17.067 3.3346C17.4187 3.68624 17.6336 4.01834 17.8133 4.48328C17.95 4.83492 18.1141 5.36628 18.1571 6.33914C18.204 7.39404 18.2157 7.71052 18.2157 10.379C18.2157 13.0515 18.204 13.368 18.1571 14.419C18.1141 15.3957 17.95 15.9232 17.8133 16.2748C17.6336 16.7397 17.4148 17.0758 17.067 17.4235C16.7154 17.7751 16.3833 17.99 15.9184 18.1697C15.5667 18.3065 15.0354 18.4706 14.0625 18.5136C13.0076 18.5604 12.6911 18.5722 10.0226 18.5722C7.35017 18.5722 7.03369 18.5604 5.98269 18.5136C5.00593 18.4706 4.47847 18.3065 4.12684 18.1697C3.66189 17.99 3.32589 17.7712 2.97816 17.4235C2.62652 17.0718 2.41163 16.7397 2.23191 16.2748C2.09516 15.9232 1.93106 15.3918 1.88809 14.419C1.8412 13.364 1.82948 13.0476 1.82948 10.379C1.82948 7.70661 1.8412 7.39014 1.88809 6.33914C1.93106 5.36237 2.09516 4.83492 2.23191 4.48328C2.41163 4.01834 2.63043 3.68233 2.97816 3.3346C3.32979 2.98297 3.66189 2.76808 4.12684 2.58835C4.47847 2.4516 5.00983 2.28751 5.98269 2.24453C7.03369 2.19764 7.35017 2.18592 10.0226 2.18592ZM10.0226 0.384766C7.30719 0.384766 6.96727 0.396487 5.90064 0.443372C4.83792 0.490256 4.1073 0.662167 3.47436 0.908313C2.81406 1.16618 2.25535 1.50609 1.70055 2.0648C1.14184 2.61961 0.801921 3.17832 0.544055 3.83471C0.29791 4.47156 0.125999 5.19827 0.0791138 6.26099C0.032229 7.33153 0.0205078 7.67145 0.0205078 10.3869C0.0205078 13.1023 0.032229 13.4422 0.0791138 14.5088C0.125999 15.5715 0.29791 16.3022 0.544055 16.9351C0.801921 17.5954 1.14184 18.1541 1.70055 18.7089C2.25535 19.2637 2.81406 19.6075 3.47045 19.8615C4.1073 20.1076 4.83401 20.2796 5.89674 20.3264C6.96337 20.3733 7.30328 20.385 10.0187 20.385C12.7341 20.385 13.074 20.3733 14.1406 20.3264C15.2034 20.2796 15.934 20.1076 16.5669 19.8615C17.2233 19.6075 17.782 19.2637 18.3368 18.7089C18.8916 18.1541 19.2355 17.5954 19.4894 16.939C19.7356 16.3022 19.9075 15.5754 19.9544 14.5127C20.0013 13.4461 20.013 13.1062 20.013 10.3908C20.013 7.67535 20.0013 7.33544 19.9544 6.26881C19.9075 5.20609 19.7356 4.47546 19.4894 3.84252C19.2433 3.17832 18.9034 2.61961 18.3447 2.0648C17.7899 1.51 17.2311 1.16618 16.5748 0.91222C15.9379 0.666074 15.2112 0.494164 14.1485 0.447279C13.0779 0.396487 12.738 0.384766 10.0226 0.384766Z" fill="white"/>
<path d="M10.0226 5.25C7.18603 5.25 4.88477 7.55126 4.88477 10.3878C4.88477 13.2243 7.18603 15.5256 10.0226 15.5256C12.8591 15.5256 15.1604 13.2243 15.1604 10.3878C15.1604 7.55126 12.8591 5.25 10.0226 5.25ZM10.0226 13.7205C8.18233 13.7205 6.68983 12.228 6.68983 10.3878C6.68983 8.54756 8.18233 7.05507 10.0226 7.05507C11.8628 7.05507 13.3553 8.54756 13.3553 10.3878C13.3553 12.228 11.8628 13.7205 10.0226 13.7205Z" fill="white"/>
<path d="M16.5625 5.04492C16.5625 5.70899 16.0234 6.24414 15.3633 6.24414C14.6992 6.24414 14.1641 5.70508 14.1641 5.04492C14.1641 4.38086 14.7031 3.8457 15.3633 3.8457C16.0234 3.8457 16.5625 4.38477 16.5625 5.04492Z" fill="white"/>
</g>
<defs>
<clipPath id="clip0">
<rect width="20.0042" height="20.0042" fill="white" transform="translate(0.0205078 0.384766)"/>
</clipPath>
</defs>
</svg>
