<svg width="21" height="21" viewBox="0 0 21 21" fill="none" xmlns="http://www.w3.org/2000/svg">
<path d="M10.0021 1.80116C12.6745 1.80116 12.991 1.81288 14.042 1.85976C15.0188 1.90274 15.5462 2.06684 15.8979 2.20359C16.3628 2.38331 16.6988 2.60211 17.0465 2.94984C17.3982 3.30147 17.6131 3.63357 17.7928 4.09851C17.9295 4.45015 18.0936 4.98151 18.1366 5.95437C18.1835 7.00928 18.1952 7.32575 18.1952 9.99428C18.1952 12.6667 18.1835 12.9832 18.1366 14.0342C18.0936 15.011 17.9295 15.5384 17.7928 15.89C17.6131 16.355 17.3943 16.691 17.0465 17.0387C16.6949 17.3904 16.3628 17.6052 15.8979 17.785C15.5462 17.9217 15.0149 18.0858 14.042 18.1288C12.9871 18.1757 12.6706 18.1874 10.0021 18.1874C7.32966 18.1874 7.01319 18.1757 5.96218 18.1288C4.98542 18.0858 4.45796 17.9217 4.10633 17.785C3.64139 17.6052 3.30538 17.3864 2.95765 17.0387C2.60601 16.6871 2.39113 16.355 2.2114 15.89C2.07465 15.5384 1.91056 15.007 1.86758 14.0342C1.82069 12.9793 1.80897 12.6628 1.80897 9.99428C1.80897 7.32184 1.82069 7.00537 1.86758 5.95437C1.91056 4.9776 2.07465 4.45015 2.2114 4.09851C2.39113 3.63357 2.60992 3.29756 2.95765 2.94984C3.30929 2.5982 3.64139 2.38331 4.10633 2.20359C4.45796 2.06684 4.98933 1.90274 5.96218 1.85976C7.01319 1.81288 7.32966 1.80116 10.0021 1.80116ZM10.0021 0C7.28668 0 6.94677 0.0117212 5.88014 0.058606C4.81741 0.105491 4.08679 0.277402 3.45385 0.523547C2.79355 0.781413 2.23484 1.12133 1.68004 1.68004C1.12133 2.23484 0.781413 2.79355 0.523547 3.44994C0.277402 4.08679 0.105491 4.81351 0.058606 5.87623C0.0117212 6.94676 0 7.28668 0 10.0021C0 12.7175 0.0117212 13.0574 0.058606 14.124C0.105491 15.1868 0.277402 15.9174 0.523547 16.5503C0.781413 17.2106 1.12133 17.7693 1.68004 18.3241C2.23484 18.8789 2.79355 19.2228 3.44994 19.4767C4.08679 19.7229 4.81351 19.8948 5.87623 19.9417C6.94286 19.9886 7.28277 20.0003 9.99819 20.0003C12.7136 20.0003 13.0535 19.9886 14.1201 19.9417C15.1829 19.8948 15.9135 19.7229 16.5464 19.4767C17.2028 19.2228 17.7615 18.8789 18.3163 18.3241C18.8711 17.7693 19.215 17.2106 19.4689 16.5542C19.7151 15.9174 19.887 15.1907 19.9339 14.128C19.9807 13.0613 19.9925 12.7214 19.9925 10.006C19.9925 7.29059 19.9807 6.95067 19.9339 5.88404C19.887 4.82132 19.7151 4.0907 19.4689 3.45775C19.2228 2.79355 18.8829 2.23484 18.3241 1.68004C17.7693 1.12524 17.2106 0.781413 16.5542 0.527454C15.9174 0.281309 15.1907 0.109398 14.128 0.0625131C13.0574 0.0117212 12.7175 0 10.0021 0Z" fill="white"/>
<path d="M10.0021 4.86426C7.16552 4.86426 4.86426 7.16552 4.86426 10.0021C4.86426 12.8386 7.16552 15.1398 10.0021 15.1398C12.8386 15.1398 15.1398 12.8386 15.1398 10.0021C15.1398 7.16552 12.8386 4.86426 10.0021 4.86426ZM10.0021 13.3348C8.16182 13.3348 6.66932 11.8423 6.66932 10.0021C6.66932 8.16182 8.16182 6.66932 10.0021 6.66932C11.8423 6.66932 13.3348 8.16182 13.3348 10.0021C13.3348 11.8423 11.8423 13.3348 10.0021 13.3348Z" fill="white"/>
<path d="M16.542 4.66113C16.542 5.3252 16.0029 5.86035 15.3428 5.86035C14.6787 5.86035 14.1436 5.32129 14.1436 4.66113C14.1436 3.99707 14.6826 3.46191 15.3428 3.46191C16.0029 3.46191 16.542 4.00098 16.542 4.66113Z" fill="white"/>
</svg>
